<svg data-name="Capa 1" xmlns="http://www.w3.org/2000/svg" viewBox="0 0 14.91 12.81"><path d="M14.88 1.35s-.03-.07-.06-.08c-.04-.01-.07 0-.1.03 0 0-.72.88-2.03 1.06-1.21.16-2.19 1-2.44 1.24-.24-.2-.79-.52-.81-.53-.04-.02-.08-.01-.11.01-.02.02-.03.05-.02.08-.36-.35-1.1-.35-1.14-.35-.05 0-.09.04-.09.09 0 .04.03.07.06.09.02.03.06.12.08.23-1.26-.37-2.82.03-2.89.05h-.01c-.02-.03-.05-.08-.06-.13-.01-.04-.05-.06-.09-.06-.03 0-.11 0-.58.45-.18-.57-1.07-1.33-1.18-1.43H3.4C2 1.31 1.45.07 1.44.05 1.43.03 1.41.01 1.38 0c-.03 0-.05 0-.08.01C.2.76 0 3.25 0 3.36c0 2.79 1.1 3.38 1.49 3.51-.1.21-.27.72-.66 1.95-.08.25-.15.46-.19.59-.13.38-.2.47-.22.49-.02 0-.03.02-.04.04-.02.03-.02.06 0 .09.12.25.32.45.45.57-.1.03-.19.03-.19.03-.04 0-.07.02-.08.05-.01.03 0 .07.02.1C2.22 12.6 5.84 12.8 6 12.81h.5c4.73 0 7-2.46 7.02-2.49.02-.03.03-.06.02-.1-.01-.03-.05-.05-.08-.05h-.03c.12-.17.23-.42.3-.6.02-.04 0-.09-.04-.11-.06-.03-.09-.07-.11-.11.42-.05.43-.35.43-.36 0-.02 0-.04-.02-.06-.83-.91-.82-1.69-.8-1.88 2.07-1.06 1.75-5.5 1.73-5.69Zm-2.16 1.19c1-.13 1.66-.64 1.96-.93-.56 1.87-2.51 3.28-2.74 3.44-.25-.15-.64-.19-.74-.2 0-.05.05-.17.12-.27v-.03c0-.01 0-.03-.02-.05-.07-.07-.43-.06-.63-.05 0-.08 0-.14-.05-.2-.07-.11-.2-.15-.25-.17l-.05-.3c.01-.01 1.08-1.07 2.4-1.24Zm.31 2.54s-.01.03 0 .04c0 .03.03.05.05.05.08.03.25-.06.35-.13-.03.35-.38.57-.38.57-.01 0-.02.03-.02.04 0 .02.01.03.03.04.11.04.14.19.15.27-.33-.03-.48.05-.55.11-.2-.31-.37-.44-.49-.49-.05-.02-.1-.03-.13-.02 0-.06.1-.12.11-.13.01 0 .02-.02.02-.04 0-.12-.06-.22-.15-.29.21-.15 1.05-.77 1.77-1.68 0 .69-.75 1.64-.76 1.65ZM4.6 3.78c.19-.19.41-.39.53-.48.04.07.09.14.16.16.04 0 .08 0 .11-.02.19-.05 1.76-.41 2.92 0 .03.01.07 0 .09-.02.02-.02.04-.05.03-.09-.03-.15-.06-.26-.09-.34.3.03.87.13.96.51 0 .03.03.06.06.07.03.01.06 0 .09-.01 0 0 .1-.08.1-.22.21.13.53.33.65.44 0 0 .02.02.03.02l.05.31c-.11.12-.84.88-1.44 1.1-.69.25-1.57 1.18-1.61 1.22-.02.03-.05.05-.07.08-.04-.08-.17-.15-.22-.17h-.04c-.01 0-.02.01-.03.03-.02.06-.09.11-.15.15 0-.1-.05-.21-.06-.24 0-.02-.03-.03-.05-.03-.02 0-.04.02-.04.04-.02.12-.12.2-.19.24-.02-.1-.12-.23-.14-.26-.01-.01-.03-.02-.04-.02-.02 0-.03.02-.04.03-.01.05-.07.09-.11.13-.01-.1-.09-.2-.1-.22-.01-.02-.03-.02-.05-.01-.02 0-.03.03-.03.05 0 .03-.08.12-.19.21 0-.09-.05-.19-.08-.27 0-.02-.03-.03-.05-.03-.02 0-.04.02-.04.04-.02.11-.09.19-.14.23-.01-.41-.08-.42-.11-.43-.05 0-.12.05-.18.19-.05-.19-.22-.54-.73-1.04-.13-.12-.14-.85-.12-1.31.08-.04.15-.06.21-.06 0 .02.02.03.05.04.03.01.07 0 .1-.02ZM3.31 2.25c.31.26 1.08 1 1.14 1.42-.07 0-.16.04-.25.08h-.01c-.26.12-.58.34-.79.5C3.13 4.13.6 2.93 1.36.27c.19.36.77 1.31 1.95 1.98ZM2.03 5.86c-.08-.14-.3-.39-.49-.6.13 0 .27-.04.29-.04.02 0 .03-.02.03-.04s0-.03-.02-.04c-.24-.18-.4-.48-.48-.66.18.08.36.02.37.01.02 0 .03-.02.03-.04s0-.04-.02-.04c-.25-.12-.27-1.16-.25-1.7.55.98 1.53 1.49 1.81 1.61-.09.07-.15.11-.15.12-.09.07-.17.16-.25.25-.33.39-.5.65-.5.76 0 .06-.22.27-.38.41ZM.18 3.36S.35 1.12 1.25.29c-.25.92-.13 1.66.16 2.25-.01.19-.08 1.52.21 1.88-.09 0-.22 0-.32-.1-.01-.01-.04-.02-.06 0-.02.01-.03.03-.02.05 0 .02.17.49.49.78-.09.02-.22.03-.29-.02-.02-.01-.04-.01-.06 0-.02.02-.02.04 0 .06.27.29.55.62.6.72-.22.21-.35.33-.34.42 0 .02.01.04.03.06.09.07.21.06.28.04-.06.22-.16.29-.23.32-.01-.02-.03-.03-.06-.03-.01 0-1.46-.22-1.46-3.35ZM.57 10c.06-.08.14-.23.24-.54.04-.13.11-.33.19-.58.2-.06.69-.19.81 0 .1.14.01.53-.91 1.52-.1-.1-.24-.24-.34-.41Zm.55 1.04c.14-.26.44-.74.62-.74h.01c.06 0 .11.08.15.21 0 0 .14.41-.03 1.03-.27-.15-.52-.31-.75-.5Zm11.76-.41c-.08-.18-.26-.54-.54-.54h-.04c-.06 0-.1-.02-.13-.07-.04-.09 0-.25.11-.36.11-.09.43-.25 1.11.15-.09.2-.19.34-.23.35-.05 0-.09.04-.09.09s.04.09.09.09h.05c-.08.07-.19.17-.34.29Zm.55-1.46c-.05 0-.09.04-.09.09 0 0 0 .19.16.31-.03.07-.06.14-.09.2-.71-.41-1.05-.24-1.16-.14-.14.12-.17.3-.13.41.03.07.09.11.17.1.28-.03.47.35.54.52-.95.74-3.2 2.08-6.84 1.95-.03 0-2.34-.13-4.08-1.06.18-.64.04-1.05.03-1.06-.04-.15-.1-.23-.19-.24-.23-.02-.56.53-.68.76-.09-.07-.18-.15-.26-.23.06-.01.14-.04.22-.08.03-.01.05-.04.05-.07 0-.03-.01-.06-.04-.08 0 0-.05-.04-.12-.1.75-.82 1.06-1.35.91-1.58-.14-.21-.61-.1-.84-.03.21-.66.58-1.81.67-1.96.01-.01.02-.03.03-.04.1-.03.26-.14.32-.47 0-.02 0-.03-.02-.05-.01-.01-.03-.01-.05 0 0 0-.16.08-.27 0 .01-.06.22-.26.37-.39.26-.24.42-.39.42-.49 0-.07.12-.28.47-.7.07-.09.15-.17.24-.23.26-.21.65-.49.95-.64-.01.28-.03 1.16.15 1.33.74.72.73 1.12.73 1.12 0 .02.01.04.03.05.02 0 .04 0 .05-.03.05-.12.11-.23.14-.26.02.06.04.26.04.43 0 .02 0 .03.02.04h.05s.13-.08.2-.22c.03.09.04.16.03.18-.02.01-.03.04-.01.06.01.02.04.03.06.02 0 0 .01 0 .02-.01.07-.05.21-.15.28-.26.03.06.05.12.02.15-.01.02-.02.04 0 .06.01.02.04.02.06.01.02 0 .14-.07.21-.17.06.09.09.18.08.19-.02.01-.03.04-.02.06 0 .02.02.03.04.03h.01s.19-.07.28-.23c.02.06.02.13 0 .15-.01.02-.01.04 0 .06.01.02.04.02.06.01.02 0 .19-.09.26-.21.08.05.14.1.13.12-.02.05 0 .07.02.08.03.02.06.02.2-.14 0 0 .9-.95 1.57-1.19.63-.23 1.35-.99 1.48-1.12.05.01.15.05.2.13.03.05.04.12.02.19v.04c0 .01.02.02.04.02.24-.01.52-.01.6.02-.06.09-.16.27-.08.36 0 0 .02.02.03.02 0 0 .49.03.75.2.09.06.15.13.16.23-.08.05-.17.15-.11.26.01.02.04.03.06.02 0 0 .04-.01.11.02.15.06.45.3.86 1.26 0 .01-.01.02-.02.04 0 .02-.05.25.03.62-.2-.11-.58-.27-.9-.14-.24.1-.4.34-.47.72 0 0-.02.22.18.4.13.11.36.22.8.22.24 0 .54-.03.91-.11.08.11.17.22.27.33-.02.05-.09.15-.36.15Zm.06-.53c-1.01.22-1.46.07-1.65-.1-.18-.16-.16-.36-.16-.36.07-.37.22-.6.44-.69.32-.13.72.06.9.16.07.28.2.62.47.99Zm-.42-1.76c-.13-.31-.25-.54-.37-.72.04-.04.17-.14.54-.09.01 0 .03 0 .04-.01s.02-.02.01-.03c0-.01 0-.25-.15-.37.12-.09.39-.34.37-.69 0-.02-.01-.03-.03-.04h-.05c-.12.08-.26.15-.32.17.16-.21.81-1.12.74-1.77.35-.45.66-.97.85-1.54.03 1.14-.05 4.28-1.65 5.1Z" fill="#492913"/><path d="M3.11 9.57c.68 0 1.23-.72 1.23-1.61s-.55-1.61-1.23-1.61-1.23.72-1.23 1.61.55 1.61 1.23 1.61Zm0-3.12c.63 0 1.14.68 1.14 1.52s-.51 1.52-1.14 1.52-1.14-.68-1.14-1.52.51-1.52 1.14-1.52ZM9.5 9.11c.84 0 1.52-.76 1.52-1.7s-.68-1.7-1.52-1.7-1.52.76-1.52 1.7.68 1.7 1.52 1.7Zm0-3.31c.79 0 1.42.72 1.42 1.61s-.64 1.61-1.42 1.61-1.42-.72-1.42-1.61S8.72 5.8 9.5 5.8Z" fill="#492913"/><path d="M3.36 8.93c.28 0 .5-.37.5-.85s-.22-.85-.5-.85-.5.37-.5.85.22.85.5.85Zm.28-1.24c0 .14-.07.26-.15.26s-.15-.12-.15-.26.07-.26.15-.26.15.12.15.26Zm-.28-.37c.06 0 .11.02.16.06H3.5c-.11 0-.19.13-.19.3s.08.3.19.3.19-.13.19-.3v-.05c.05.13.08.28.08.45 0 .41-.19.76-.41.76s-.41-.35-.41-.76.19-.76.41-.76ZM9.31 8.46c.28 0 .5-.37.5-.85s-.22-.85-.5-.85-.5.37-.5.85.22.85.5.85Zm.25-1.26c0 .14-.07.26-.15.26s-.15-.12-.15-.26.07-.26.15-.26.15.12.15.26Zm-.25-.35c.06 0 .11.02.16.06-.02-.01-.04-.02-.06-.02-.11 0-.19.13-.19.3s.08.3.19.3.19-.13.19-.3c0-.07-.02-.14-.04-.19.1.14.17.36.17.61 0 .41-.19.76-.41.76s-.41-.35-.41-.76.19-.76.41-.76ZM5.8 8.21s-.37-.04-.52.09c-.05.04-.07.09-.08.14 0 .08.01.14.06.19.08.08.21.08.26.08.09.15.2.22.3.22.15 0 .25-.16.29-.22.06 0 .21 0 .3-.09.05-.04.07-.1.06-.17 0-.05-.02-.09-.06-.13-.16-.14-.58-.12-.62-.12Zm.59.25s0 .07-.04.1c-.07.06-.21.06-.26.06-.02 0-.04 0-.04.02-.03.05-.12.19-.23.2-.08 0-.16-.06-.24-.2 0-.01-.02-.02-.04-.02-.04 0-.16 0-.22-.05-.03-.03-.04-.06-.03-.11 0-.03.02-.06.04-.08.11-.09.36-.08.46-.07.12 0 .45 0 .56.09.02.02.03.04.03.06ZM5.13 7.93c.07 0 .17-.01.29-.03.17-.02.38-.05.61-.05s.42.02.57.04c.21.02.34.04.4-.02.02-.01.04-.04.04-.09 0-.19-.39-.64-1.01-.64s-1.09.47-1.09.66c0 .04.02.07.04.08.03.03.08.04.15.04Zm.9-.69c.56 0 .92.41.92.55v.02c-.03.03-.18.01-.33 0-.16-.02-.35-.04-.59-.04s-.45.03-.62.05c-.16.02-.33.04-.37.01v-.01c0-.13.42-.57.99-.57ZM11.41 8.89c-.44-.22-2.05.56-2.12.59-2.4 1.04-3.42.28-3.43.27-.01 0-.02-.01-.04 0-.01 0-.02 0-.03.02-.21.34-.81.37-1.13.38-.46.02-.89-.05-1.34-.13-.08-.01-.17-.03-.25-.04-.19-.03-.55-.09-.71.18-.15.24-.01.58.4 1 .11.11.24.21.38.31.14.09.29.17.46.25.3.14.62.26.96.36.59.17 1.23.27 1.89.3h.16c.79 0 1.66-.23 2.7-.73.65-.31 1.16-.68 1.54-1.12.18-.21.75-.92.65-1.48-.01-.07-.05-.12-.12-.16Zm-2.66.91c.08.23.46 1.36.25 1.9-.77.34-1.44.53-2.06.57-.65-.3-.92-1.95-.97-2.35.33.16 1.2.43 2.78-.12Zm-6.3.4c.08-.12.21-.16.35-.16.07 0 .15 0 .22.02 0 .2-.02.9.06 1.24-.09-.07-.18-.14-.25-.22-.26-.27-.54-.63-.39-.89Zm.76 1.19c-.1-.17-.1-.96-.09-1.31.07.01.14.02.2.03.28.05.55.09.83.12-.01.23-.05 1.23.3 1.71-.28-.09-.54-.19-.79-.3-.17-.08-.31-.16-.44-.24Zm3.26.89c-.65-.03-1.28-.13-1.86-.29-.42-.37-.39-1.52-.37-1.76.14 0 .29.01.44 0 .35-.01.92-.04 1.17-.38h.01c.03.23.26 1.94.91 2.42h-.3Zm2.82-.71c-.06.03-.12.06-.18.08.16-.6-.2-1.66-.28-1.88.16-.06.33-.12.5-.2.23-.11.67-.31 1.09-.45.08.16.39.84.37 1.37-.37.42-.87.79-1.5 1.09Zm1.6-1.2c-.02-.52-.29-1.11-.37-1.29.37-.12.71-.19.86-.11.04.02.06.05.07.09.06.38-.23.9-.55 1.3Z" fill="#492913"/><circle cx="5.02" cy="9.51" r=".08" fill="#492913"/><circle cx="4.73" cy="8.96" r=".08" fill="#492913"/><circle cx="4.51" cy="9.45" r=".08" fill="#492913"/><circle cx="7.26" cy="9.21" r=".08" fill="#492913"/><path d="M6.81 8.79s.03.08.08.08.08-.03.08-.08-.03-.08-.08-.08-.08.03-.08.08Z" fill="#492913"/><circle cx="6.67" cy="9.28" r=".08" fill="#492913"/><path d="M13.07 10.26c0-.05.04-.09.09-.09.05-.01.14-.16.23-.35-.68-.4-1-.24-1.11-.15-.12.11-.15.27-.11.36.02.05.07.08.13.07h.04c.28 0 .47.36.54.54.14-.11.26-.21.34-.29h-.05c-.05 0-.09-.04-.09-.09Z" fill="#b07a5e"/><ellipse cx="9.41" cy="7.2" rx=".15" ry=".26" fill="#ffe7ca"/><path d="M1.9 10.51c-.03-.13-.08-.2-.15-.21h-.01c-.19 0-.48.48-.62.74.23.19.48.35.75.5.17-.62.03-1.02.03-1.03Z" fill="#b07a5e"/><path d="M5.8 8.3c-.1-.01-.36-.02-.46.07-.03.02-.04.05-.04.08 0 .05 0 .09.03.11.06.06.18.06.22.05.02 0 .03 0 .04.02.08.14.16.2.24.2.11 0 .2-.14.23-.2 0-.02.03-.03.04-.02.05 0 .19 0 .26-.06.03-.02.04-.06.04-.1 0-.02-.01-.04-.03-.06-.11-.1-.44-.1-.56-.09Z" fill="#d9946d"/><path d="M9.31 8.37c.22 0 .41-.35.41-.76 0-.25-.07-.47-.17-.61.03.05.04.12.04.19 0 .17-.08.3-.19.3s-.19-.13-.19-.3.08-.3.19-.3c.02 0 .04 0 .06.02-.05-.04-.1-.06-.16-.06-.22 0-.41.35-.41.76s.19.76.41.76Z" fill="#282019"/><path d="M.9 10.42c.92-1 1-1.38.91-1.52-.13-.19-.61-.07-.81 0-.08.24-.14.45-.19.58-.1.31-.18.46-.24.54.1.17.23.32.34.41Z" fill="#b07a5e"/><path d="M9.5 9.01c.79 0 1.42-.72 1.42-1.61s-.64-1.61-1.42-1.61-1.42.72-1.42 1.61.64 1.61 1.42 1.61Zm-.19-2.25c.28 0 .5.37.5.85s-.22.85-.5.85-.5-.37-.5-.85.22-.85.5-.85Z" fill="#f6f4bf"/><path d="M5.4 7.82c.17-.02.39-.05.62-.05s.43.02.59.04c.15.02.3.03.33 0v-.02c0-.14-.36-.55-.92-.55s-.99.44-.99.57v.01c.04.03.2.01.37-.01Z" fill="#b07a5e"/><path d="M12.02 5.11c.09.07.15.17.15.29 0 .02 0 .03-.02.04 0 0-.1.06-.11.13.03 0 .07 0 .13.02.12.05.29.18.49.49.07-.06.22-.14.55-.11-.01-.08-.04-.23-.15-.27-.02 0-.03-.02-.03-.04s0-.03.02-.04c0 0 .35-.22.38-.57-.11.07-.27.16-.35.13-.03 0-.05-.03-.05-.05v-.04c0-.01.75-.96.76-1.65-.72.91-1.56 1.53-1.77 1.68Z" fill="#e7ae77"/><path d="M10.36 4.09c.06.02.18.06.25.17.04.06.05.13.05.2.2 0 .56-.02.63.05.02.02.02.04.02.05v.03c-.07.1-.12.22-.12.27.11 0 .49.05.74.2.23-.16 2.18-1.57 2.74-3.44-.3.28-.96.79-1.96.93-1.31.18-2.39 1.23-2.4 1.24l.05.3Z" fill="#b47e54"/><path d="M4.5 3.8s-.04-.02-.05-.04c-.06 0-.13.03-.21.06-.02.45 0 1.19.12 1.31.51.5.68.85.73 1.04.07-.13.13-.19.18-.19.03 0 .1.02.11.43.05-.05.12-.13.14-.23 0-.02.02-.03.04-.04.02 0 .04 0 .05.03.03.07.07.18.08.27.11-.09.2-.18.19-.21 0-.02 0-.04.03-.05.02 0 .04 0 .05.01.01.02.09.12.1.22.05-.04.1-.08.11-.13 0-.02.02-.03.04-.03s.03 0 .04.02c.02.03.12.16.14.26.07-.04.17-.12.19-.24 0-.02.02-.03.04-.04.02 0 .04 0 .05.03.01.03.06.14.06.24.06-.04.12-.09.15-.15 0-.01.01-.02.03-.03h.04c.05.02.18.09.22.17.02-.02.05-.05.07-.08.04-.04.91-.96 1.61-1.22.61-.22 1.33-.99 1.44-1.1l-.05-.31s-.02-.01-.03-.02c-.11-.11-.43-.32-.65-.44 0 .14-.09.22-.1.22-.02.02-.06.02-.09.01s-.05-.03-.06-.07c-.09-.38-.66-.48-.96-.51.03.08.06.18.09.34 0 .03 0 .07-.03.09-.02.02-.06.03-.09.02-1.16-.41-2.73-.05-2.92 0-.03.02-.07.03-.11.02-.07-.02-.12-.09-.16-.16-.11.09-.34.29-.53.48-.03.03-.06.03-.1.02Z" fill="#b57e53"/><path d="M3.39 4.25c.21-.16.53-.38.79-.5h.01c.09-.04.18-.07.25-.08-.06-.42-.82-1.15-1.14-1.42C2.13 1.59 1.54.64 1.35.28.58 2.94 3.12 4.14 3.39 4.26Z" fill="#b17a52"/><path d="M1.7 6.75c.07-.03.17-.1.23-.32-.08.02-.19.03-.28-.04-.02-.01-.03-.03-.03-.06 0-.08.12-.21.34-.42-.05-.09-.33-.43-.6-.72-.02-.02-.02-.04 0-.06.02-.02.04-.02.06 0 .07.05.2.03.29.02-.32-.29-.48-.76-.49-.78 0-.02 0-.04.02-.05.02-.01.04 0 .06 0 .1.1.24.11.32.1-.28-.35-.22-1.69-.21-1.88C1.12 1.95.99 1.2 1.25.29.35 1.12.18 3.34.18 3.36c0 3.13 1.45 3.35 1.46 3.35.02 0 .04.01.06.03Z" fill="#fae2a9"/><path d="M2.4 5.45c0-.11.17-.37.5-.76.08-.09.16-.17.25-.25 0 0 .07-.05.15-.12-.27-.13-1.25-.64-1.81-1.61-.02.55 0 1.58.25 1.7.02 0 .03.03.02.04 0 .02-.01.03-.03.04 0 0-.2.06-.37-.01.08.18.24.48.48.66.01.01.02.03.02.04 0 .02-.01.03-.03.04-.02 0-.16.05-.29.04.18.21.41.46.49.6.16-.14.38-.35.38-.41Z" fill="#e7ae77"/><path d="M12.61 8.8c-.43 0-.67-.11-.8-.22-.2-.18-.18-.39-.18-.4.07-.38.23-.63.47-.72.32-.13.71.03.9.14-.08-.37-.03-.6-.03-.62 0-.01 0-.03.02-.04-.41-.96-.71-1.2-.86-1.26-.07-.03-.11-.02-.11-.02-.02 0-.05 0-.06-.02-.06-.11.03-.21.11-.26 0-.1-.07-.17-.16-.23-.26-.17-.75-.2-.75-.2-.01 0-.02 0-.03-.02-.07-.09.03-.27.08-.36-.08-.03-.36-.03-.6-.02-.01 0-.03 0-.04-.02 0-.01-.01-.03 0-.04.02-.07.01-.14-.02-.19-.05-.08-.16-.12-.2-.13-.12.13-.85.9-1.48 1.12-.67.24-1.56 1.18-1.57 1.19-.15.16-.17.16-.2.14-.01 0-.03-.03-.02-.08 0-.02-.05-.07-.13-.12-.07.12-.24.2-.26.21-.02 0-.04 0-.06-.01-.01-.02-.01-.04 0-.06.02-.03.02-.09 0-.15-.09.16-.27.22-.28.23h-.01c-.02 0-.03 0-.04-.03-.01-.02 0-.05.02-.06.01-.02-.02-.1-.08-.19-.07.09-.19.16-.21.17-.02 0-.04 0-.06-.01-.01-.02-.01-.04 0-.06.03-.03 0-.1-.02-.15-.07.1-.21.21-.28.26 0 0-.01 0-.02.01-.02 0-.05 0-.06-.02-.01-.02 0-.05.01-.06.01-.02 0-.09-.03-.18-.07.14-.2.22-.2.22h-.05c-.01 0-.02-.02-.02-.04 0-.17-.02-.37-.04-.43-.03.03-.09.14-.14.26 0 .02-.03.03-.05.03-.02 0-.04-.03-.03-.05 0 0 .02-.4-.73-1.12-.18-.17-.16-1.05-.15-1.33-.3.15-.69.43-.95.64-.08.07-.16.15-.24.23-.35.42-.47.64-.47.7 0 .1-.16.25-.42.49-.14.13-.35.32-.37.39.11.07.26 0 .27 0h.05c.01.01.02.03.02.05-.07.33-.23.44-.32.47 0 .02-.02.03-.03.04-.1.15-.46 1.3-.67 1.96.23-.07.7-.18.84.03.15.23-.16.76-.91 1.58.07.06.11.1.12.1.03.02.04.05.04.08s-.02.06-.05.07c-.08.04-.15.06-.22.08.08.08.17.16.26.23.12-.22.44-.78.68-.76.08 0 .15.09.19.24 0 .02.14.43-.03 1.06C3.7 12.47 6 12.6 6.03 12.6c3.65.13 5.89-1.21 6.84-1.95-.07-.17-.26-.55-.54-.52-.08 0-.14-.03-.17-.1-.05-.11-.02-.29.13-.41.11-.1.45-.27 1.16.14.03-.06.06-.13.09-.2-.16-.12-.16-.3-.16-.31 0-.05.04-.09.09-.09.27 0 .34-.1.36-.15-.1-.11-.19-.22-.27-.33-.37.08-.67.11-.91.11ZM9.5 5.71c.84 0 1.52.76 1.52 1.7s-.68 1.7-1.52 1.7-1.52-.76-1.52-1.7.68-1.7 1.52-1.7ZM7.26 9.14s.08.03.08.08-.03.08-.08.08-.08-.03-.08-.08.03-.08.08-.08ZM6.03 7.15c.62 0 1.01.45 1.01.64 0 .05-.02.07-.04.09-.06.06-.19.04-.4.02-.16-.02-.35-.04-.57-.04s-.44.03-.61.05c-.12.02-.22.03-.29.03-.07 0-.12-.01-.15-.04-.02-.01-.04-.04-.04-.08 0-.19.47-.66 1.09-.66Zm.93 1.64s-.03.08-.08.08-.08-.03-.08-.08.03-.08.08-.08.08.03.08.08Zm-.21.49s-.03.08-.08.08-.08-.03-.08-.08.03-.08.08-.08.08.03.08.08Zm-.27-.82c0 .07-.02.13-.06.17-.09.08-.23.09-.3.09-.04.06-.14.21-.29.22-.11 0-.21-.07-.3-.22-.06 0-.19 0-.26-.08-.05-.05-.07-.11-.06-.19 0-.06.03-.1.08-.14.16-.13.51-.09.52-.09.04 0 .46-.02.62.12.04.04.06.08.06.13ZM5.1 9.51s-.03.08-.08.08-.08-.03-.08-.08.03-.08.08-.08.08.03.08.08Zm-.37-.62s.08.03.08.08-.03.08-.08.08-.08-.03-.08-.08.03-.08.08-.08Zm-.22.49s.08.03.08.08-.03.08-.08.08-.08-.03-.08-.08.03-.08.08-.08ZM1.88 7.97c0-.89.55-1.61 1.23-1.61s1.23.72 1.23 1.61-.55 1.61-1.23 1.61-1.23-.72-1.23-1.61Zm8.99 2.56c-.38.44-.89.81-1.54 1.12-1.04.49-1.9.73-2.7.73h-.16c-.66-.03-1.3-.13-1.89-.3-.34-.1-.66-.22-.96-.36-.17-.08-.32-.16-.46-.25-.15-.1-.27-.2-.38-.31-.41-.42-.55-.75-.4-1 .16-.26.52-.21.71-.18.09.01.17.03.25.04.45.08.88.15 1.34.13.32-.01.92-.04 1.13-.38 0-.01.02-.02.03-.02h.04s1.02.77 3.43-.27c.07-.03 1.68-.82 2.12-.59.06.03.11.09.12.16.09.55-.48 1.27-.65 1.48Z" fill="#eab075"/><path d="M3.02 10.06c-.07-.01-.15-.02-.22-.02-.15 0-.28.04-.35.16-.15.25.13.62.39.89.07.08.16.15.25.22-.08-.34-.07-1.04-.06-1.24ZM4.15 10.23c-.28-.02-.55-.07-.83-.12-.07-.01-.14-.02-.2-.03 0 .36 0 1.15.09 1.31.13.09.28.17.44.24.25.12.52.22.79.3-.34-.48-.31-1.48-.3-1.71Z" fill="#fefcf9"/><path d="M3.11 9.48c.63 0 1.14-.68 1.14-1.52s-.51-1.52-1.14-1.52-1.14.68-1.14 1.52.51 1.52 1.14 1.52Zm.25-2.25c.28 0 .5.37.5.85s-.22.85-.5.85-.5-.37-.5-.85.22-.85.5-.85Z" fill="#f6f4bf"/><path d="M6.94 12.27c.62-.05 1.29-.23 2.06-.57.21-.54-.17-1.67-.25-1.9-1.59.55-2.46.28-2.78.12.06.4.33 2.06.97 2.35Z" fill="#fefcf9"/><path d="M10.43 9.12c-.42.14-.86.34-1.09.45-.17.08-.34.14-.5.2.08.23.44 1.28.28 1.88.06-.03.12-.06.18-.08.63-.3 1.13-.66 1.5-1.09.02-.53-.29-1.21-.37-1.37Z" fill="#fefcf9"/><path d="M14.72 1.78c-.19.56-.5 1.08-.85 1.54.07.66-.58 1.56-.74 1.77.06-.01.19-.08.32-.17.01 0 .03-.01.05 0 .01 0 .02.02.03.04.02.36-.25.6-.37.69.14.11.15.35.15.37 0 .01 0 .03-.01.03s-.02.01-.04.01c-.37-.04-.5.05-.54.09.11.18.23.42.37.72 1.6-.82 1.68-3.96 1.65-5.1Z" fill="#fae2a9"/><path d="M11.37 8.98c-.15-.08-.49 0-.86.11.08.17.35.77.37 1.29.32-.4.62-.93.55-1.3 0-.04-.03-.07-.07-.09Z" fill="#fefcf9"/><path d="M12.13 7.49c-.22.09-.37.32-.44.69 0 0-.02.2.16.36.19.17.63.32 1.65.1-.27-.38-.4-.72-.47-.99-.18-.1-.58-.29-.9-.16Z" fill="#b07a5e"/><path d="M5.86 9.86h-.01c-.25.35-.82.37-1.17.38h-.44c-.01.24-.05 1.39.37 1.76.58.17 1.21.27 1.86.29h.3c-.65-.48-.88-2.19-.91-2.42Z" fill="#fefcf9"/><path d="M3.36 8.84c.22 0 .41-.35.41-.76 0-.17-.03-.32-.08-.45v.05c0 .17-.08.3-.19.3s-.19-.13-.19-.3.08-.3.19-.3h.02c-.05-.04-.1-.06-.16-.06-.22 0-.41.35-.41.76s.19.76.41.76Z" fill="#282019"/><path d="M3.35 7.69c0 .14.07.26.15.26s.15-.12.15-.26-.07-.26-.15-.26-.15.12-.15.26Z" fill="#ffe7ca"/></svg>